<svg
   viewBox="0 0 48.073505 48.073486"
  fill="#808080"
   xmlns="http://www.w3.org/2000/svg"><g
     transform="translate(-83.715256,-102.89578)"><path
       d="M 107.75203 113.98089 A 6.475903 6.4759054 0 0 0 101.27594 120.45647 A 6.475903 6.4759054 0 0 0 107.75203 126.93256 A 6.475903 6.4759054 0 0 0 114.22812 120.45647 A 6.475903 6.4759054 0 0 0 107.75203 113.98089 z M 107.75203 130.2631 A 15.767809 18.237114 0 0 0 91.984002 148.50023 A 15.767809 18.237114 0 0 0 92.135931 150.96933 L 123.36813 150.96933 A 15.767809 18.237114 0 0 0 123.51954 148.50023 A 15.767809 18.237114 0 0 0 107.75203 130.2631 z " /></g></svg>
